<?xml version="1.0" encoding="UTF-8" standalone="no"?>
<!DOCTYPE svg PUBLIC "-//W3C//DTD SVG 1.1//EN"
 "http://www.w3.org/Graphics/SVG/1.1/DTD/svg11.dtd">
<!-- Generated by graphviz version 2.38.0 (20140413.2041)
 -->
<!-- Title: poker Pages: 1 -->
<svg width="400pt" height="285pt"
 viewBox="0.00 0.00 400.00 285.00" xmlns="http://www.w3.org/2000/svg" xmlns:xlink="http://www.w3.org/1999/xlink">
<g id="graph0" class="graph" transform="scale(1 1) rotate(0) translate(4 281)">
<title>poker</title>
<polygon fill="white" stroke="none" points="-4,4 -4,-281 396,-281 396,4 -4,4"/>
<g id="clust1" class="cluster"><title>cluster_local</title>
<polygon fill="none" stroke="black" stroke-dasharray="1,5" points="8,-81 8,-269 184,-269 184,-81 8,-81"/>
<text text-anchor="middle" x="96" y="-253.8" font-family="Times,serif" font-size="14.00">your computer</text>
</g>
<g id="clust2" class="cluster"><title>cluster_casino</title>
<polygon fill="none" stroke="#ff9800" points="192,-8 192,-159 384,-159 384,-8 192,-8"/>
<text text-anchor="middle" x="288" y="-143.8" font-family="Times,serif" font-size="14.00">poker api</text>
</g>
<!-- poker&#45;plumbing -->
<g id="node1" class="node"><title>poker&#45;plumbing</title>
<ellipse fill="none" stroke="black" cx="109" cy="-221" rx="66.8316" ry="18"/>
<text text-anchor="middle" x="109" y="-216.8" font-family="Times,serif" font-size="14.00">poker&#45;plumbing</text>
</g>
<!-- your bot -->
<g id="node2" class="node"><title>your bot</title>
<polygon fill="none" stroke="black" points="96,-133 16.1865,-100 175.813,-100 96,-133"/>
<text text-anchor="middle" x="96" y="-106.8" font-family="Times,serif" font-size="14.00">your bot</text>
</g>
<!-- poker&#45;plumbing&#45;&gt;your bot -->
<g id="edge1" class="edge"><title>poker&#45;plumbing&#45;&gt;your bot</title>
<path fill="none" stroke="black" stroke-dasharray="1,5" d="M86.5918,-203.729C79.7791,-197.472 73.1358,-189.714 69.4932,-181 63.3408,-166.281 69.414,-149.587 77.2901,-136.306"/>
<polygon fill="black" stroke="black" points="80.3588,-138.009 82.9027,-127.724 74.5003,-134.177 80.3588,-138.009"/>
<text text-anchor="middle" x="96.2534" y="-169.8" font-family="Times,serif" font-size="14.00">std in/out</text>
</g>
<!-- casino -->
<g id="node4" class="node"><title>casino</title>
<polygon fill="none" stroke="black" points="254,-129 200,-129 200,-93 254,-93 254,-129"/>
<text text-anchor="middle" x="227" y="-106.8" font-family="Times,serif" font-size="14.00">casino</text>
</g>
<!-- poker&#45;plumbing&#45;&gt;casino -->
<g id="edge6" class="edge"><title>poker&#45;plumbing&#45;&gt;casino</title>
<path fill="none" stroke="black" d="M123.291,-203.231C133.873,-191.701 149.186,-176.766 165.228,-167 174.391,-161.422 179.195,-165.128 188,-159 196.309,-153.218 203.844,-145.212 210.028,-137.445"/>
<polygon fill="black" stroke="black" points="212.988,-139.33 216.179,-129.227 207.385,-135.135 212.988,-139.33"/>
<text text-anchor="middle" x="187.386" y="-169.8" font-family="Times,serif" font-size="14.00">http/tcp</text>
</g>
<!-- your bot&#45;&gt;poker&#45;plumbing -->
<g id="edge2" class="edge"><title>your bot&#45;&gt;poker&#45;plumbing</title>
<path fill="none" stroke="black" stroke-dasharray="1,5" d="M106.51,-129.119C112.335,-139.629 118.993,-153.603 122,-167 123.918,-175.544 122.756,-184.826 120.489,-193.201"/>
<polygon fill="black" stroke="black" points="117.114,-192.262 117.308,-202.855 123.762,-194.452 117.114,-192.262"/>
</g>
<!-- other bots -->
<g id="node3" class="node"><title>other bots</title>
<polygon fill="none" stroke="black" points="284,-243 193.579,-210 374.421,-210 284,-243"/>
<text text-anchor="middle" x="284" y="-216.8" font-family="Times,serif" font-size="14.00">other bots</text>
</g>
<!-- other bots&#45;&gt;casino -->
<g id="edge3" class="edge"><title>other bots&#45;&gt;casino</title>
<path fill="none" stroke="black" d="M278.535,-209.645C269.914,-193.311 252.895,-161.065 240.775,-138.1"/>
<polygon fill="black" stroke="black" points="243.842,-136.413 236.079,-129.202 237.651,-139.68 243.842,-136.413"/>
</g>
<!-- casino&#45;&gt;poker&#45;plumbing -->
<g id="edge7" class="edge"><title>casino&#45;&gt;poker&#45;plumbing</title>
<path fill="none" stroke="black" d="M226.473,-129.057C225.123,-144.403 220.873,-166.676 208,-181 197.967,-192.163 184.33,-200.169 170.388,-205.897"/>
<polygon fill="black" stroke="black" points="168.868,-202.729 160.727,-209.51 171.32,-209.285 168.868,-202.729"/>
</g>
<!-- logs -->
<g id="node5" class="node"><title>logs</title>
<ellipse fill="none" stroke="black" cx="227" cy="-34" rx="27" ry="18"/>
<text text-anchor="middle" x="227" y="-29.8" font-family="Times,serif" font-size="14.00">logs</text>
</g>
<!-- casino&#45;&gt;logs -->
<g id="edge4" class="edge"><title>casino&#45;&gt;logs</title>
<path fill="none" stroke="black" d="M227,-92.9813C227,-83.9357 227,-72.5966 227,-62.3506"/>
<polygon fill="black" stroke="black" points="230.5,-62.2109 227,-52.2109 223.5,-62.211 230.5,-62.2109"/>
</g>
<!-- leaderboard -->
<g id="node6" class="node"><title>leaderboard</title>
<ellipse fill="none" stroke="black" cx="324" cy="-34" rx="51.683" ry="18"/>
<text text-anchor="middle" x="324" y="-29.8" font-family="Times,serif" font-size="14.00">leaderboard</text>
</g>
<!-- casino&#45;&gt;leaderboard -->
<g id="edge5" class="edge"><title>casino&#45;&gt;leaderboard</title>
<path fill="none" stroke="black" d="M249.011,-92.9813C262.877,-82.2603 280.909,-68.3175 295.816,-56.7914"/>
<polygon fill="black" stroke="black" points="297.96,-59.5582 303.73,-50.6725 293.678,-54.0205 297.96,-59.5582"/>
</g>
</g>
</svg>
