<?xml version="1.0" encoding="UTF-8" standalone="no"?>
<!DOCTYPE svg PUBLIC "-//W3C//DTD SVG 1.1//EN"
 "http://www.w3.org/Graphics/SVG/1.1/DTD/svg11.dtd">
<!-- Generated by graphviz version 2.38.0 (20140413.2041)
 -->
<!-- Title: poker Pages: 1 -->
<svg width="312pt" height="188pt"
 viewBox="0.00 0.00 312.25 188.00" xmlns="http://www.w3.org/2000/svg" xmlns:xlink="http://www.w3.org/1999/xlink">
<g id="graph0" class="graph" transform="scale(1 1) rotate(0) translate(4 184)">
<title>poker</title>
<polygon fill="white" stroke="none" points="-4,4 -4,-184 308.251,-184 308.251,4 -4,4"/>
<!-- bot_1 -->
<g id="node1" class="node"><title>bot_1</title>
<ellipse fill="none" stroke="black" cx="105.251" cy="-162" rx="30.0035" ry="18"/>
<text text-anchor="middle" x="105.251" y="-157.8" font-family="Times,serif" font-size="14.00">bot_1</text>
</g>
<!-- casino -->
<g id="node2" class="node"><title>casino</title>
<ellipse fill="none" stroke="black" cx="105.251" cy="-90" rx="32.8994" ry="18"/>
<text text-anchor="middle" x="105.251" y="-85.8" font-family="Times,serif" font-size="14.00">casino</text>
</g>
<!-- bot_1&#45;&gt;casino -->
<g id="edge1" class="edge"><title>bot_1&#45;&gt;casino</title>
<path fill="none" stroke="black" d="M99.3725,-144.055C98.5422,-136.231 98.305,-126.748 98.6609,-117.977"/>
<polygon fill="black" stroke="black" points="102.167,-118.013 99.3892,-107.789 95.185,-117.514 102.167,-118.013"/>
</g>
<!-- casino&#45;&gt;bot_1 -->
<g id="edge2" class="edge"><title>casino&#45;&gt;bot_1</title>
<path fill="none" stroke="black" d="M111.112,-107.789C111.951,-115.591 112.196,-125.067 111.848,-133.848"/>
<polygon fill="black" stroke="black" points="108.34,-133.834 111.129,-144.055 115.323,-134.325 108.34,-133.834"/>
</g>
<!-- bot_2 -->
<g id="node3" class="node"><title>bot_2</title>
<ellipse fill="none" stroke="black" cx="30.2507" cy="-18" rx="30.0035" ry="18"/>
<text text-anchor="middle" x="30.2507" y="-13.8" font-family="Times,serif" font-size="14.00">bot_2</text>
</g>
<!-- casino&#45;&gt;bot_2 -->
<g id="edge4" class="edge"><title>casino&#45;&gt;bot_2</title>
<path fill="none" stroke="black" d="M85.332,-75.5033C73.9216,-66.0776 59.8699,-53.2549 48.7184,-42.2072"/>
<polygon fill="black" stroke="black" points="51.0396,-39.5761 41.5295,-34.906 46.0516,-44.4873 51.0396,-39.5761"/>
</g>
<!-- stats -->
<g id="node4" class="node"><title>stats</title>
<ellipse fill="none" stroke="black" cx="105.251" cy="-18" rx="27" ry="18"/>
<text text-anchor="middle" x="105.251" y="-13.8" font-family="Times,serif" font-size="14.00">stats</text>
</g>
<!-- casino&#45;&gt;stats -->
<g id="edge5" class="edge"><title>casino&#45;&gt;stats</title>
<path fill="none" stroke="black" d="M105.251,-71.6966C105.251,-63.9827 105.251,-54.7125 105.251,-46.1124"/>
<polygon fill="black" stroke="black" points="108.751,-46.1043 105.251,-36.1043 101.751,-46.1044 108.751,-46.1043"/>
</g>
<!-- rankings -->
<g id="node5" class="node"><title>rankings</title>
<ellipse fill="none" stroke="black" cx="191.251" cy="-18" rx="40.6248" ry="18"/>
<text text-anchor="middle" x="191.251" y="-13.8" font-family="Times,serif" font-size="14.00">rankings</text>
</g>
<!-- casino&#45;&gt;rankings -->
<g id="edge6" class="edge"><title>casino&#45;&gt;rankings</title>
<path fill="none" stroke="black" d="M123.07,-74.496C135.048,-64.7461 151.052,-51.7198 164.544,-40.7379"/>
<polygon fill="black" stroke="black" points="167.016,-43.2391 172.562,-34.2119 162.597,-37.8102 167.016,-43.2391"/>
</g>
<!-- logs -->
<g id="node6" class="node"><title>logs</title>
<ellipse fill="none" stroke="black" cx="277.251" cy="-18" rx="27" ry="18"/>
<text text-anchor="middle" x="277.251" y="-13.8" font-family="Times,serif" font-size="14.00">logs</text>
</g>
<!-- casino&#45;&gt;logs -->
<g id="edge7" class="edge"><title>casino&#45;&gt;logs</title>
<path fill="none" stroke="black" d="M131.798,-79.2791C159.372,-69.0367 203.659,-52.1776 241.251,-36 243.06,-35.2213 244.913,-34.4053 246.777,-33.57"/>
<polygon fill="black" stroke="black" points="248.415,-36.6691 256.042,-29.315 245.494,-30.3079 248.415,-36.6691"/>
</g>
<!-- bot_2&#45;&gt;casino -->
<g id="edge3" class="edge"><title>bot_2&#45;&gt;casino</title>
<path fill="none" stroke="black" d="M49.6943,-32.1049C61.057,-41.4571 75.1512,-54.2951 86.3957,-65.4095"/>
<polygon fill="black" stroke="black" points="84.1404,-68.1069 93.6565,-72.7646 89.1221,-63.1892 84.1404,-68.1069"/>
</g>
</g>
</svg>
